<?xml version="1.0" encoding="utf-8"?><svg xmlns="http://www.w3.org/2000/svg" xmlns:xlink="http://www.w3.org/1999/xlink"><symbol viewBox="0 0 411.595 411.595" id="call" xmlns="http://www.w3.org/2000/svg"><path d="M284.395 215.803c-.8 1.2-.8 2.4-1.2 4-.4 5.2 3.6 10 8.8 10.4 5.2.4 10-3.6 10.4-8.8 0-1.2 0-2.4.4-4.4v-4.4c0-11.6-2-22.8-5.6-33.6-4.8-14-13.2-26.4-23.2-36.8-12.4-12.4-27.6-21.2-44.8-26-8-2-16.8-3.2-25.2-3.2-2.8 0-5.6 0-8.8.4l-8.4 1.2c-5.2.8-8.8 6-7.6 10.8.8 5.2 6 8.8 10.8 7.6 2.4-.4 4.4-.8 6.8-.8h1.2c2 0 4-.4 6-.4 22 0 42.4 8.8 56.8 23.6 14.4 14.4 23.2 34 23.6 56v4.4z"/><path d="M337.195 224.603c-.4 5.2 3.6 10 8.8 10.4 5.2.4 10-3.6 10.4-8.8.4-4.4.4-8.8.4-13.2 0-8.8-.8-17.2-2-25.6-5.2-32-20.8-60.8-42.8-82.8-25.2-25.2-58.8-41.6-96-44.4-4-.4-8.4-.4-12.4-.4-4.4 0-8.8 0-13.2.4-4.4.4-8.8.8-13.2 1.6-5.2.8-8.8 6-7.6 10.8.8 5.2 6 8.8 10.8 7.6 2.8-.4 5.2-.8 8-1.2 1.2 0 2.4-.4 3.6-.4 4-.4 8-.4 11.6-.4 13.6 0 26.4 2 38.8 5.6 21.6 6.4 40.8 18 56.4 33.6 12.8 12.8 23.2 28.4 30 45.2 6 15.2 9.6 32 9.6 49.6v4c-.8 3.2-1.2 5.6-1.2 8.4z"/><path d="M350.795 66.203c-38-38-90-61.2-147.6-61.2-6 0-12 .4-18 .8s-12 1.2-18 2.4c-5.2.8-8.8 6-7.6 10.8.8 5.2 6 8.8 10.8 7.6 2.8-.4 5.2-.8 8-1.2 2.8-.4 5.6-.8 8.4-.8 5.6-.4 10.8-.8 16.4-.8 52 0 99.2 21.2 133.6 55.2 34 34 55.2 81.2 55.2 133.6v8.8c0 2.4-.4 4.8-.4 7.6-.4 5.2 3.6 10 8.8 10.4 5.2.4 10-3.6 10.4-8.8.4-6 .8-12 .8-17.6 0-57.2-23.2-109.2-60.8-146.8zm46 242.4l-70.8-38c-23.6-12.8-24.4-4.4-49.2 22-6 6.4-17.2 23.2-30.4 20-27.6-6.8-79.2-47.2-96-65.6-8-8.8-42.4-50.8-42.8-64.4-.8-20.8 44.8-31.2 30-70.8l-31.6-70.8c-29.6-68-112.4 40.8-105.6 91.6 17.6 125.2 237.2 327.6 359.6 260.8 27.2-15.2 64-68.4 36.8-84.8z"/></symbol><symbol viewBox="0 0 284.929 284.929" id="down" xmlns="http://www.w3.org/2000/svg"><path d="M135.899 167.877c1.902 1.902 4.093 2.851 6.567 2.851s4.661-.948 6.562-2.851L282.082 34.829c1.902-1.903 2.847-4.093 2.847-6.567s-.951-4.665-2.847-6.567L267.808 7.417c-1.902-1.903-4.093-2.853-6.57-2.853-2.471 0-4.661.95-6.563 2.853L142.466 119.622 30.262 7.417c-1.903-1.903-4.093-2.853-6.567-2.853-2.475 0-4.665.95-6.567 2.853L2.856 21.695C.95 23.597 0 25.784 0 28.262c0 2.478.953 4.665 2.856 6.567l133.043 133.048z"/><path d="M267.808 117.053c-1.902-1.903-4.093-2.853-6.57-2.853-2.471 0-4.661.95-6.563 2.853L142.466 229.257 30.262 117.05c-1.903-1.903-4.093-2.853-6.567-2.853-2.475 0-4.665.95-6.567 2.853L2.856 131.327C.95 133.23 0 135.42 0 137.893c0 2.474.953 4.665 2.856 6.57l133.043 133.046c1.902 1.903 4.093 2.854 6.567 2.854s4.661-.951 6.562-2.854l133.054-133.046c1.902-1.903 2.847-4.093 2.847-6.565 0-2.474-.951-4.661-2.847-6.567l-14.274-14.278z"/></symbol><symbol viewBox="0 0 512 512" id="download" xmlns="http://www.w3.org/2000/svg"><path d="M382.56 233.376A15.96 15.96 0 0 0 368 224h-64V16c0-8.832-7.168-16-16-16h-64c-8.832 0-16 7.168-16 16v208h-64a16.013 16.013 0 0 0-14.56 9.376c-2.624 5.728-1.6 12.416 2.528 17.152l112 128A15.946 15.946 0 0 0 256 384c4.608 0 8.992-2.016 12.032-5.472l112-128c4.16-4.704 5.12-11.424 2.528-17.152z"/><path d="M432 352v96H80v-96H16v128c0 17.696 14.336 32 32 32h416c17.696 0 32-14.304 32-32V352h-64z"/></symbol><symbol viewBox="0 0 352.62 352.62" id="mark" xmlns="http://www.w3.org/2000/svg"><path d="M337.222 22.952c-15.912-8.568-33.66 7.956-44.064 17.748-23.867 23.256-44.063 50.184-66.708 74.664-25.092 26.928-48.348 53.856-74.052 80.173-14.688 14.688-30.6 30.6-40.392 48.96-22.032-21.421-41.004-44.677-65.484-63.648C28.774 167.385-.602 157.593.01 190.029c1.224 42.229 38.556 87.517 66.096 116.28 11.628 12.24 26.928 25.092 44.676 25.704 21.42 1.224 43.452-24.48 56.304-38.556 22.645-24.48 41.005-52.021 61.812-77.112 26.928-33.048 54.468-65.485 80.784-99.145 16.524-20.808 68.544-72.217 27.54-94.248zM26.937 187.581c-.612 0-1.224 0-2.448.611-2.448-.611-4.284-1.224-6.732-2.448 1.836-1.224 4.896-.612 9.18 1.837z"/></symbol><symbol viewBox="0 0 284.929 284.929" id="up" xmlns="http://www.w3.org/2000/svg"><path d="M17.128 167.872c1.903 1.902 4.093 2.854 6.567 2.854s4.664-.952 6.567-2.854L142.466 55.666l112.208 112.206c1.902 1.902 4.093 2.854 6.563 2.854 2.478 0 4.668-.952 6.57-2.854l14.274-14.277c1.902-1.902 2.847-4.093 2.847-6.563 0-2.475-.951-4.665-2.847-6.567L149.028 7.419c-1.901-1.906-4.088-2.853-6.562-2.853s-4.665.95-6.567 2.853L2.856 140.464C.95 142.367 0 144.554 0 147.034c0 2.468.953 4.658 2.856 6.561l14.272 14.277z"/><path d="M149.028 117.055c-1.901-1.906-4.088-2.856-6.562-2.856s-4.665.953-6.567 2.856L2.856 250.1C.95 252.003 0 254.192 0 256.67c0 2.472.953 4.661 2.856 6.564l14.272 14.276c1.903 1.903 4.093 2.848 6.567 2.848s4.664-.951 6.567-2.848l112.204-112.209L254.674 277.51c1.902 1.903 4.093 2.852 6.563 2.852 2.478 0 4.668-.948 6.57-2.852l14.274-14.276c1.902-1.903 2.847-4.093 2.847-6.564 0-2.478-.951-4.667-2.847-6.57L149.028 117.055z"/></symbol></svg>