<svg xmlns="http://www.w3.org/2000/svg"><symbol viewBox="0 0 550.795 550.795" id="envelope" xmlns="http://www.w3.org/2000/svg"><path d="M501.613 491.782c12.381 0 23.109-4.088 32.229-12.16L377.793 323.567a2878.213 2878.213 0 0 0-10.801 7.767c-11.678 8.604-21.156 15.318-28.434 20.129-7.277 4.822-16.959 9.737-29.045 14.755-12.094 5.024-23.361 7.528-33.813 7.528h-.612c-10.453 0-21.72-2.503-33.813-7.528-12.093-5.018-21.775-9.933-29.045-14.755-7.277-4.811-16.75-11.524-28.434-20.129a1351.934 1351.934 0 0 0-10.771-7.809L16.946 479.622c9.119 8.072 19.854 12.16 32.234 12.16h452.433zM31.047 225.299C19.37 217.514 9.015 208.598 0 198.555V435.98l137.541-137.541c-27.516-19.21-62.969-43.562-106.494-73.14zm489.012 0c-41.865 28.336-77.447 52.73-106.75 73.195l137.486 137.492V198.555c-8.815 9.841-19.059 18.751-30.736 26.744z"/><path d="M501.613 59.013H49.181c-15.784 0-27.919 5.33-36.42 15.979C4.253 85.646.006 98.97.006 114.949c0 12.907 5.636 26.892 16.903 41.959 11.267 15.061 23.256 26.891 35.961 35.496 6.965 4.921 27.969 19.523 63.012 43.801a20367.497 20367.497 0 0 1 49.505 34.395 8855.122 8855.122 0 0 1 31.022 21.701c.985.691 2.534 1.799 4.59 3.269 2.215 1.591 5.018 3.61 8.476 6.107 6.659 4.816 12.191 8.709 16.597 11.683 4.4 2.975 9.731 6.298 15.985 9.988 6.249 3.685 12.143 6.456 17.675 8.299 5.533 1.842 10.655 2.766 15.367 2.766h.612c4.711 0 9.834-.924 15.368-2.766 5.531-1.843 11.42-4.608 17.674-8.299 6.248-3.69 11.572-7.02 15.986-9.988 4.406-2.974 9.938-6.866 16.598-11.683 3.451-2.497 6.254-4.517 8.469-6.102a643.575 643.575 0 0 1 4.596-3.274c6.684-4.651 17.1-11.892 31.104-21.616 25.482-17.705 63.01-43.764 112.742-78.281 14.957-10.447 27.453-23.054 37.496-37.803 10.025-14.749 15.051-30.22 15.051-46.408 0-13.525-4.873-25.098-14.598-34.737-9.736-9.627-21.265-14.443-34.584-14.443z"/></symbol><symbol viewBox="0 0 495.398 495.398" id="home" xmlns="http://www.w3.org/2000/svg"><path d="M487.083 225.514l-75.08-75.08v-86.73c0-15.682-12.708-28.391-28.413-28.391-15.669 0-28.377 12.709-28.377 28.391v29.941L299.31 37.74c-27.639-27.624-75.694-27.575-103.27.05L8.312 225.514c-11.082 11.104-11.082 29.071 0 40.158 11.087 11.101 29.089 11.101 40.172 0l187.71-187.729c6.115-6.083 16.893-6.083 22.976-.018l187.742 187.747a28.337 28.337 0 0 0 20.081 8.312c7.271 0 14.541-2.764 20.091-8.312 11.086-11.086 11.086-29.053-.001-40.158z"/><path d="M257.561 131.836c-5.454-5.451-14.285-5.451-19.723 0L72.712 296.913a13.977 13.977 0 0 0-4.085 9.877v120.401c0 28.253 22.908 51.16 51.16 51.16h81.754v-126.61h92.299v126.61h81.755c28.251 0 51.159-22.907 51.159-51.159V306.79c0-3.713-1.465-7.271-4.085-9.877L257.561 131.836z"/></symbol><symbol viewBox="0 0 60 60" id="location" xmlns="http://www.w3.org/2000/svg"><path d="M42.117 43.007a1 1 0 0 0-.234 1.986C52.399 46.231 58 49.567 58 51.5c0 2.714-10.652 6.5-28 6.5S2 54.214 2 51.5c0-1.933 5.601-5.269 16.117-6.507a1 1 0 0 0-.234-1.986C7.354 44.247 0 47.739 0 51.5 0 55.724 10.305 60 30 60s30-4.276 30-8.5c0-3.761-7.354-7.253-17.883-8.493z"/><path d="M29.823 54.757L45.164 32.6c5.754-7.671 4.922-20.28-1.781-26.982C39.761 1.995 34.945 0 29.823 0s-9.938 1.995-13.56 5.617c-6.703 6.702-7.535 19.311-1.804 26.952l15.364 22.188zM30 12c3.86 0 7 3.141 7 7s-3.14 7-7 7-7-3.141-7-7 3.14-7 7-7z"/></symbol><symbol viewBox="0 0 353 406" id="logo" xmlns="http://www.w3.org/2000/svg"><path d="M179.097 402.82c-3.08-1.182-7.175-3.847-9.523-6.197-9.457-9.467-21.35-39.67-24.538-62.314-3.752-26.66 19.252-66.495 75.455-130.661 7.155-8.169 14.236-16.314 15.735-18.1 2.21-2.631 3.008-5.117 4.208-13.107.814-5.423 1.364-9.976 1.22-10.12-.142-.143-3.958 5.352-8.478 12.212-8.836 13.408-14.887 19.234-24.976 24.045-7.604 3.627-13.775 4.146-19.45 1.636-2.518-1.114-5.074-2.95-5.678-4.08-4.61-8.613.718-30.684 11.388-47.178l4.46-6.895-4.98 1.963c-2.739 1.08-7.187 3.081-9.885 4.448-4.85 2.458-4.913 2.552-5.552 8.257-2.219 19.806-5.806 34.486-10.313 42.198-6.544 11.197-20.101 20.594-31.38 21.75-13.401 1.372-22.109-5.54-27.308-21.677-.974-3.025-1.91-5.661-2.078-5.858-.644-.752-28.531 23.325-63.218 54.579-5.018 4.52-10.294 8.514-11.725 8.873-6.924 1.738-18.576-2.847-25.933-10.204-4.538-4.538-6.806-10.45-4.94-12.876.49-.638 2.367-3.372 4.169-6.075 13.45-20.174 30.225-121.41 34.837-210.235.82-15.796.362-15.272 13.977-15.984C68.69.482 79.164 3.675 81.828 9.522c2.004 4.398 1.317 10.1-2.85 23.674-7.643 24.89-15.79 61.147-25.424 113.14-6.29 33.941-9.453 54.58-10.28 67.078l-.591 8.913 6.908-4.874C69.9 203.124 104 176.353 104 174.737c0-.53-2.25-3.563-5-6.737s-5-6.516-5-7.425c0-.91 2.825-4.674 6.277-8.365 3.452-3.69 8.372-9.86 10.933-13.71 14.004-21.05 22.626-27.48 36.862-27.494 12-.012 21.516 6.195 26.872 17.53 1.68 3.555 3.283 6.464 3.563 6.464 1.165 0 44.69-14.524 52.825-17.628 10.41-3.971 12.47-3.743 16.962 1.881 6.569 8.225 7.298 8.747 12.226 8.747 8.681 0 9.858 2.501 7.56 16.066-.507 2.989-1.204 8.949-1.548 13.244-.614 7.659-.586 7.79 1.431 6.71 1.132-.606 8.598-7.388 16.591-15.072 16.491-15.853 22.79-21.076 29.554-24.503 13.03-6.603 25.366-2.432 31.778 10.744 9.911 20.366 3.893 48.894-14.507 68.769-7.947 8.583-15.844 12.305-27.268 12.851-9.51.455-13.349-.598-18.732-5.138-5.447-4.593-11.202-18.25-14.077-33.401-.779-4.108-.874-4.194-3.292-2.976-2.96 1.492-2.36-2.072-8.463 50.206-9.95 85.22-16.467 119.365-26.694 139.85-16.12 32.29-34.28 44.95-53.756 37.47zm17.768-16.25c14.758-7.632 30.265-73.455 39.125-166.07 1.105-11.55 2.009-21.411 2.01-21.914 0-.995-17.373 24.031-33.212 47.839-19.116 28.735-25.995 42.129-29.325 57.097-1.426 6.407-1.639 10.58-1.146 22.425 1.281 30.811 7.812 55.11 16.183 60.216 3.593 2.191 2.989 2.153 6.365.407zm-48.25-182.811c4.37-3.396 6.11-5.691 9.355-12.337 3.773-7.727 7.03-21.618 7.03-29.98v-6.48l-2.75.652c-1.512.358-7.925 2.22-14.25 4.138-6.325 1.918-12.232 3.696-13.126 3.952-4.313 1.232-3.786 33.203.66 39.987 2.091 3.193 9.013 3.228 13.081.068zm167.397-2.765c4.454-2.272 10.836-10.182 14.153-17.54 1.7-3.772 2.332-7.391 2.646-15.166.393-9.715.265-10.529-2.63-16.714-4.57-9.766-6.221-9.832-21.35-.844-10.71 6.362-11.198 7.481-10.585 24.323.538 14.783 2.135 21.056 6.462 25.383 3.087 3.086 6.06 3.233 11.304.558zm-97.009-20.857c5.974-6.376 13.846-20.324 16.407-29.069 1.529-5.222 2.163-13.068 1.057-13.068-1.435 0-10.453 5.187-14.217 8.177-7.748 6.155-15.911 18.796-19.784 30.636-1.405 4.297-1.49 5.716-.485 8.141.67 1.616 1.96 3.111 2.868 3.324 3.282.767 8.76-2.383 14.154-8.14zm-68.2-38.64c6.215-1.797 11.555-3.521 11.865-3.831.815-.816-1.411-6.725-3.335-8.851-2.17-2.398-6.04-2.291-10.26.282-3.87 2.359-13.446 11.862-15.136 15.021-1.05 1.963-.926 2.04 2.225 1.364 1.836-.393 8.424-2.186 14.64-3.984z"/></symbol><symbol viewBox="0 0 480.56 480.56" id="phone" xmlns="http://www.w3.org/2000/svg"><path d="M365.354 317.9c-15.7-15.5-35.3-15.5-50.9 0-11.9 11.8-23.8 23.6-35.5 35.6-3.2 3.3-5.9 4-9.8 1.8-7.7-4.2-15.9-7.6-23.3-12.2-34.5-21.7-63.4-49.6-89-81-12.7-15.6-24-32.3-31.9-51.1-1.6-3.8-1.3-6.3 1.8-9.4 11.9-11.5 23.5-23.3 35.2-35.1 16.3-16.4 16.3-35.6-.1-52.1-9.3-9.4-18.6-18.6-27.9-28-9.6-9.6-19.1-19.3-28.8-28.8-15.7-15.3-35.3-15.3-50.9.1-12 11.8-23.5 23.9-35.7 35.5-11.3 10.7-17 23.8-18.2 39.1-1.9 24.9 4.2 48.4 12.8 71.3 17.6 47.4 44.4 89.5 76.9 128.1 43.9 52.2 96.3 93.5 157.6 123.3 27.6 13.4 56.2 23.7 87.3 25.4 21.4 1.2 40-4.2 54.9-20.9 10.2-11.4 21.7-21.8 32.5-32.7 16-16.2 16.1-35.8.2-51.8-19-19.1-38.1-38.1-57.2-57.1zm-19.1-79.7l36.9-6.3c-5.8-33.9-21.8-64.6-46.1-89-25.7-25.7-58.2-41.9-94-46.9l-5.2 37.1c27.7 3.9 52.9 16.4 72.8 36.3 18.8 18.8 31.1 42.6 35.6 68.8zm57.7-160.4c-42.6-42.6-96.5-69.5-156-77.8l-5.2 37.1c51.4 7.2 98 30.5 134.8 67.2 34.9 34.9 57.8 79 66.1 127.5l36.9-6.3c-9.7-56.2-36.2-107.2-76.6-147.7z"/></symbol><symbol viewBox="0 0 485.213 485.213" id="search" xmlns="http://www.w3.org/2000/svg"><path d="M471.882 407.567L360.567 296.243a214.267 214.267 0 0 1-64.331 64.321L407.56 471.888c17.772 17.768 46.587 17.768 64.321 0 17.773-17.739 17.773-46.554.001-64.321zM363.909 181.955C363.909 81.473 282.44 0 181.956 0 81.474 0 .001 81.473.001 181.955s81.473 181.951 181.955 181.951c100.484 0 181.953-81.469 181.953-181.951zM181.956 318.416c-75.252 0-136.465-61.208-136.465-136.46 0-75.252 61.213-136.465 136.465-136.465 75.25 0 136.468 61.213 136.468 136.465 0 75.252-61.218 136.46-136.468 136.46z"/><path d="M75.817 181.955h30.322c0-41.803 34.014-75.814 75.816-75.814V75.816c-58.517 0-106.138 47.621-106.138 106.139z"/></symbol><symbol viewBox="0 0 512 512" id="sent" xmlns="http://www.w3.org/2000/svg"><path d="M403.505 14.385C398.373 5.512 388.819 0 378.576 0h-107.06v126.637h196.913L403.505 14.385zM241.505 0h-108.07c-10.264 0-19.817 5.522-24.949 14.415L43.801 126.637h197.703V0zM33.057 156.648v320.069C33.057 496.174 48.893 512 68.35 512h375.3c19.457 0 35.293-15.826 35.293-35.283V156.648H33.057zm291.058 134.6l-77.609 77.609c-2.931 2.931-6.773 4.402-10.614 4.402s-7.683-1.471-10.604-4.402l-36.383-36.374c-5.852-5.852-5.852-15.356 0-21.218 5.862-5.862 15.366-5.862 21.228 0l25.76 25.77 67.005-67.005c5.862-5.862 15.366-5.862 21.218 0 5.862 5.862 5.862 15.356-.001 21.218z"/></symbol></svg>